<?xml version="1.0" encoding="UTF-8" standalone="no"?>
<svg width="277px" height="151px" viewBox="0 0 277 151" version="1.1" xmlns="http://www.w3.org/2000/svg" xmlns:xlink="http://www.w3.org/1999/xlink">
    <!-- Generator: Sketch 3.8.3 (29802) - http://www.bohemiancoding.com/sketch -->
    <title>404</title>
    <desc>Created with Sketch.</desc>
    <defs></defs>
    <g id="-pages" stroke="none" stroke-width="1" fill="none" fill-rule="evenodd">
        <g id="Artboard-9" transform="translate(-240.000000, -250.000000)" fill="#424147">
            <path d="M255.8,339.8 L288,339.8 L288,276.4 L255.8,339.8 Z M240,354.2 L240,339.8 L284.4,251.6 L304,251.6 L304,339.8 L316.8,339.8 L316.8,354.2 L304,354.2 L304,384.2 L313,384.2 L313,398.6 L279,398.6 L279,384.2 L288,384.2 L288,354.2 L240,354.2 Z M357.6,367.8 C358.26667,370.200012 359.26666,372.39999 360.6,374.4 C362.733344,378.133352 365.46665,380.99999 368.8,383 C372.000016,384.866676 375.733312,385.8 380,385.8 C384.266688,385.8 387.999984,384.866676 391.2,383 C394.53335,380.99999 397.266656,378.133352 399.4,374.4 C402.466682,369.199974 404,362.60004 404,354.6 L404,305.6 L357.6,367.8 Z M356,344.6 L402.4,282.4 C401.73333,279.999988 400.73334,277.80001 399.4,275.8 C397.266656,272.066648 394.53335,269.20001 391.2,267.2 C387.999984,265.333324 384.266688,264.4 380,264.4 C375.733312,264.4 372.000016,265.333324 368.8,267.2 C365.46665,269.20001 362.733344,272.066648 360.6,275.8 C357.533318,281.000026 356,287.59996 356,295.6 L356,344.6 Z M340,354.6 L340,295.6 C340,284.93328 342.133312,275.93337 346.4,268.6 C349.73335,262.733304 354.199972,258.200016 359.8,255 C365.533362,251.66665 372.266628,250 380,250 C387.733372,250 394.466638,251.66665 400.2,255 C405.800028,258.200016 410.26665,262.733304 413.6,268.6 C417.866688,275.93337 420,284.93328 420,295.6 L420,354.6 C420,365.26672 417.866688,374.26663 413.6,381.6 C410.26665,387.466696 405.800028,391.999984 400.2,395.2 C394.466638,398.53335 387.733372,400.2 380,400.2 C372.266628,400.2 365.533362,398.53335 359.8,395.2 C354.199972,391.999984 349.73335,387.466696 346.4,381.6 C342.133312,374.26663 340,365.26672 340,354.6 L340,354.6 Z M455.8,339.8 L488,339.8 L488,276.4 L455.8,339.8 Z M440,354.2 L440,339.8 L484.4,251.6 L504,251.6 L504,339.8 L516.8,339.8 L516.8,354.2 L504,354.2 L504,384.2 L513,384.2 L513,398.6 L479,398.6 L479,384.2 L488,384.2 L488,354.2 L440,354.2 Z" id="404"></path>
        </g>
    </g>
</svg>