<?xml version="1.0" encoding="utf-8"?>
<!-- Generator: Adobe Illustrator 19.0.0, SVG Export Plug-In . SVG Version: 6.00 Build 0)  -->
<svg version="1.1" id="图层_1" xmlns="http://www.w3.org/2000/svg" xmlns:xlink="http://www.w3.org/1999/xlink" x="0px" y="0px"
	 viewBox="0 0 50 50" style="enable-background:new 0 0 50 50;" xml:space="preserve">
<style type="text/css">
	.st0{fill:#5B557A;}
</style>
<path id="XMLID_49_" class="st0" d="M31.5,5.6L12.1,34.7v9.7l9.7-3.2l19.4-29.1L31.5,5.6z M19.5,38.2l-3.8,1.3v-3.6l16.8-25.2
	l3.7,2.5L19.5,38.2z"/>
<g id="XMLID_40_">
	<polygon id="XMLID_43_" class="st0" points="41.2,9.6 41.2,5.6 35.8,5.6 	"/>
	<polygon id="XMLID_47_" class="st0" points="37.9,21 37.9,41.2 23.2,41.2 20.9,44.4 41.2,44.4 41.2,16.5 	"/>
	<polygon id="XMLID_48_" class="st0" points="12.1,29 12.1,8.8 26.8,8.8 29.1,5.6 8.8,5.6 8.8,33.5 	"/>
</g>
<polygon id="XMLID_42_" class="st0" points="21.8,31.5 21.8,34.7 25,31.5 "/>
<polygon id="XMLID_44_" class="st0" points="21.8,25 21.8,28.2 18.5,28.2 "/>
</svg>
