<?xml version="1.0" encoding="utf-8"?>
<!-- Generator: Adobe Illustrator 19.0.0, SVG Export Plug-In . SVG Version: 6.00 Build 0)  -->
<svg version="1.1" id="图层_1" xmlns="http://www.w3.org/2000/svg" xmlns:xlink="http://www.w3.org/1999/xlink" x="0px" y="0px"
	 viewBox="0 0 50 50" style="enable-background:new 0 0 50 50;" xml:space="preserve">
<style type="text/css">
	.st0{fill:#5B557A;}
</style>
<path id="XMLID_38_" class="st0" d="M24.7,7C13.8,7,5,14.4,5,23.4c0,9.1,8.8,16.4,19.7,16.4s19.7-7.4,19.7-16.4
	C44.4,14.4,35.6,7,24.7,7z M24.7,36.6c-9.1,0-16.4-5.9-16.4-13.1s7.4-13.1,16.4-13.1s16.4,5.9,16.4,13.1S33.8,36.6,24.7,36.6z"/>
<polygon id="XMLID_33_" class="st0" points="11.6,33.3 8.3,43.2 24.7,39.9 21.4,36.6 11.6,33.3 "/>
<circle id="XMLID_30_" class="st0" cx="15.9" cy="22.5" r="2.3"/>
<circle id="XMLID_35_" class="st0" cx="24.9" cy="22.5" r="2.3"/>
<circle id="XMLID_39_" class="st0" cx="33.9" cy="22.5" r="2.3"/>
</svg>
