<?xml version="1.0" encoding="UTF-8" standalone="no"?>
<svg width="614px" height="77px" viewBox="0 0 614 77" version="1.1" xmlns="http://www.w3.org/2000/svg" xmlns:xlink="http://www.w3.org/1999/xlink">
    <!-- Generator: Sketch 3.8.3 (29802) - http://www.bohemiancoding.com/sketch -->
    <title>Combined Shape</title>
    <desc>Created with Sketch.</desc>
    <defs></defs>
    <g id="-pages" stroke="none" stroke-width="1" fill="none" fill-rule="evenodd">
        <g id="piclass-更新信息" transform="translate(0.000000, -38.000000)" fill="#FF6F62">
            <path d="M289.739809,81 C287.51131,100.142672 271.240713,115 251.5,115 C231.759287,115 215.48869,100.142672 213.260191,81 L131.739809,81 C129.51131,100.142672 113.240713,115 93.5,115 C73.7592873,115 57.4886895,100.142672 55.2601906,81 L4.99952863,81 C2.23836521,81 0,78.7558048 0,76 C0,73.2385763 2.24256556,71 4.99952863,71 L55.3898887,71 C58.0586519,52.3423822 74.1044045,38 93.5,38 C112.895595,38 128.941348,52.3423822 131.610111,71 L213.389889,71 C216.058652,52.3423822 232.104405,38 251.5,38 C270.895595,38 286.941348,52.3423822 289.610111,71 L387,71 L387,81 L289.739809,81 Z M93.5,105 C109.240115,105 122,92.2401154 122,76.5 C122,60.7598846 109.240115,48 93.5,48 C77.7598846,48 65,60.7598846 65,76.5 C65,92.2401154 77.7598846,105 93.5,105 Z M251.5,105 C267.240115,105 280,92.2401154 280,76.5 C280,60.7598846 267.240115,48 251.5,48 C235.759885,48 223,60.7598846 223,76.5 C223,92.2401154 235.759885,105 251.5,105 Z M575.5,115 C596.762963,115 614,97.7629629 614,76.5 C614,55.2370371 596.762963,38 575.5,38 C554.237037,38 537,55.2370371 537,76.5 C537,97.7629629 554.237037,115 575.5,115 Z M575.5,105 C591.240115,105 604,92.2401154 604,76.5 C604,60.7598846 591.240115,48 575.5,48 C559.759885,48 547,60.7598846 547,76.5 C547,92.2401154 559.759885,105 575.5,105 Z M387,71 L424,71 L424,81 L387,81 L387,71 Z M442,71 L479,71 L479,81 L442,81 L442,71 Z M493,72 L530,72 L530,82 L493,82 L493,72 Z" id="Combined-Shape"></path>
        </g>
    </g>
</svg>